<mxfile host="app.diagrams.net" agent="Mozilla/5.0 (Macintosh; Intel Mac OS X 10_15_7) AppleWebKit/537.36 (KHTML, like Gecko) Chrome/132.0.0.0 Safari/537.36" version="25.0.1">
  <diagram name="Page-1" id="R8N25rWXfq50JTmGiR3l">
    <mxGraphModel dx="2302" dy="2394" grid="1" gridSize="10" guides="1" tooltips="1" connect="1" arrows="1" fold="1" page="1" pageScale="1" pageWidth="827" pageHeight="1169" math="0" shadow="0">
      <root>
        <mxCell id="0" />
        <mxCell id="1" parent="0" />
        <mxCell id="N-dZR8vgHqI-F6xBQVG8-1" value="main-0" style="shape=datastore;whiteSpace=wrap;html=1;" vertex="1" parent="1">
          <mxGeometry x="590" y="50" width="60" height="60" as="geometry" />
        </mxCell>
        <mxCell id="N-dZR8vgHqI-F6xBQVG8-2" value="g-1" style="shape=datastore;whiteSpace=wrap;html=1;" vertex="1" parent="1">
          <mxGeometry x="590" y="140" width="60" height="60" as="geometry" />
        </mxCell>
        <mxCell id="N-dZR8vgHqI-F6xBQVG8-3" value="g-2" style="shape=datastore;whiteSpace=wrap;html=1;" vertex="1" parent="1">
          <mxGeometry x="590" y="230" width="60" height="60" as="geometry" />
        </mxCell>
        <mxCell id="N-dZR8vgHqI-F6xBQVG8-4" value="quarantine" style="shape=datastore;whiteSpace=wrap;html=1;" vertex="1" parent="1">
          <mxGeometry x="590" y="340" width="60" height="60" as="geometry" />
        </mxCell>
        <mxCell id="N-dZR8vgHqI-F6xBQVG8-5" value="AWS" style="rounded=0;whiteSpace=wrap;html=1;" vertex="1" parent="1">
          <mxGeometry x="-140" y="40" width="630" height="510" as="geometry" />
        </mxCell>
        <mxCell id="N-dZR8vgHqI-F6xBQVG8-7" style="edgeStyle=orthogonalEdgeStyle;rounded=0;orthogonalLoop=1;jettySize=auto;html=1;entryX=0;entryY=0.5;entryDx=0;entryDy=0;" edge="1" parent="1" source="N-dZR8vgHqI-F6xBQVG8-6" target="N-dZR8vgHqI-F6xBQVG8-1">
          <mxGeometry relative="1" as="geometry" />
        </mxCell>
        <mxCell id="N-dZR8vgHqI-F6xBQVG8-8" style="edgeStyle=orthogonalEdgeStyle;rounded=0;orthogonalLoop=1;jettySize=auto;html=1;entryX=0;entryY=0.5;entryDx=0;entryDy=0;" edge="1" parent="1" source="N-dZR8vgHqI-F6xBQVG8-6" target="N-dZR8vgHqI-F6xBQVG8-2">
          <mxGeometry relative="1" as="geometry" />
        </mxCell>
        <mxCell id="N-dZR8vgHqI-F6xBQVG8-9" style="edgeStyle=orthogonalEdgeStyle;rounded=0;orthogonalLoop=1;jettySize=auto;html=1;entryX=0;entryY=0.5;entryDx=0;entryDy=0;" edge="1" parent="1" source="N-dZR8vgHqI-F6xBQVG8-6" target="N-dZR8vgHqI-F6xBQVG8-3">
          <mxGeometry relative="1" as="geometry" />
        </mxCell>
        <mxCell id="N-dZR8vgHqI-F6xBQVG8-10" style="edgeStyle=orthogonalEdgeStyle;rounded=0;orthogonalLoop=1;jettySize=auto;html=1;entryX=0;entryY=0.5;entryDx=0;entryDy=0;" edge="1" parent="1" source="N-dZR8vgHqI-F6xBQVG8-6" target="N-dZR8vgHqI-F6xBQVG8-4">
          <mxGeometry relative="1" as="geometry" />
        </mxCell>
        <mxCell id="N-dZR8vgHqI-F6xBQVG8-56" style="edgeStyle=orthogonalEdgeStyle;rounded=0;orthogonalLoop=1;jettySize=auto;html=1;" edge="1" parent="1" source="N-dZR8vgHqI-F6xBQVG8-6" target="N-dZR8vgHqI-F6xBQVG8-54">
          <mxGeometry relative="1" as="geometry" />
        </mxCell>
        <mxCell id="N-dZR8vgHqI-F6xBQVG8-6" value="swell-api" style="aspect=fixed;sketch=0;html=1;dashed=0;whitespace=wrap;verticalLabelPosition=bottom;verticalAlign=top;fillColor=#2875E2;strokeColor=#ffffff;points=[[0.005,0.63,0],[0.1,0.2,0],[0.9,0.2,0],[0.5,0,0],[0.995,0.63,0],[0.72,0.99,0],[0.5,1,0],[0.28,0.99,0]];shape=mxgraph.kubernetes.icon2;prIcon=pod" vertex="1" parent="1">
          <mxGeometry x="380" y="56" width="50" height="48" as="geometry" />
        </mxCell>
        <mxCell id="N-dZR8vgHqI-F6xBQVG8-12" style="edgeStyle=orthogonalEdgeStyle;rounded=0;orthogonalLoop=1;jettySize=auto;html=1;entryX=0;entryY=0.5;entryDx=0;entryDy=0;" edge="1" parent="1" source="N-dZR8vgHqI-F6xBQVG8-11" target="N-dZR8vgHqI-F6xBQVG8-1">
          <mxGeometry relative="1" as="geometry" />
        </mxCell>
        <mxCell id="N-dZR8vgHqI-F6xBQVG8-13" style="edgeStyle=orthogonalEdgeStyle;rounded=0;orthogonalLoop=1;jettySize=auto;html=1;entryX=0;entryY=0.5;entryDx=0;entryDy=0;" edge="1" parent="1" source="N-dZR8vgHqI-F6xBQVG8-11" target="N-dZR8vgHqI-F6xBQVG8-2">
          <mxGeometry relative="1" as="geometry" />
        </mxCell>
        <mxCell id="N-dZR8vgHqI-F6xBQVG8-14" style="edgeStyle=orthogonalEdgeStyle;rounded=0;orthogonalLoop=1;jettySize=auto;html=1;entryX=0;entryY=0.5;entryDx=0;entryDy=0;" edge="1" parent="1" source="N-dZR8vgHqI-F6xBQVG8-11" target="N-dZR8vgHqI-F6xBQVG8-3">
          <mxGeometry relative="1" as="geometry" />
        </mxCell>
        <mxCell id="N-dZR8vgHqI-F6xBQVG8-15" style="edgeStyle=orthogonalEdgeStyle;rounded=0;orthogonalLoop=1;jettySize=auto;html=1;entryX=0;entryY=0.5;entryDx=0;entryDy=0;" edge="1" parent="1" source="N-dZR8vgHqI-F6xBQVG8-11" target="N-dZR8vgHqI-F6xBQVG8-4">
          <mxGeometry relative="1" as="geometry" />
        </mxCell>
        <mxCell id="N-dZR8vgHqI-F6xBQVG8-11" value="swell-api" style="aspect=fixed;sketch=0;html=1;dashed=0;whitespace=wrap;verticalLabelPosition=bottom;verticalAlign=top;fillColor=#2875E2;strokeColor=#ffffff;points=[[0.005,0.63,0],[0.1,0.2,0],[0.9,0.2,0],[0.5,0,0],[0.995,0.63,0],[0.72,0.99,0],[0.5,1,0],[0.28,0.99,0]];shape=mxgraph.kubernetes.icon2;prIcon=pod" vertex="1" parent="1">
          <mxGeometry x="380" y="146" width="50" height="48" as="geometry" />
        </mxCell>
        <mxCell id="N-dZR8vgHqI-F6xBQVG8-19" style="edgeStyle=orthogonalEdgeStyle;rounded=0;orthogonalLoop=1;jettySize=auto;html=1;entryX=0;entryY=0.5;entryDx=0;entryDy=0;" edge="1" parent="1" source="N-dZR8vgHqI-F6xBQVG8-16" target="N-dZR8vgHqI-F6xBQVG8-1">
          <mxGeometry relative="1" as="geometry" />
        </mxCell>
        <mxCell id="N-dZR8vgHqI-F6xBQVG8-20" style="edgeStyle=orthogonalEdgeStyle;rounded=0;orthogonalLoop=1;jettySize=auto;html=1;entryX=0;entryY=0.5;entryDx=0;entryDy=0;" edge="1" parent="1" source="N-dZR8vgHqI-F6xBQVG8-16" target="N-dZR8vgHqI-F6xBQVG8-2">
          <mxGeometry relative="1" as="geometry" />
        </mxCell>
        <mxCell id="N-dZR8vgHqI-F6xBQVG8-21" style="edgeStyle=orthogonalEdgeStyle;rounded=0;orthogonalLoop=1;jettySize=auto;html=1;entryX=0;entryY=0.5;entryDx=0;entryDy=0;" edge="1" parent="1" source="N-dZR8vgHqI-F6xBQVG8-16" target="N-dZR8vgHqI-F6xBQVG8-3">
          <mxGeometry relative="1" as="geometry" />
        </mxCell>
        <mxCell id="N-dZR8vgHqI-F6xBQVG8-16" value="swell-api-worker" style="aspect=fixed;sketch=0;html=1;dashed=0;whitespace=wrap;verticalLabelPosition=bottom;verticalAlign=top;fillColor=#2875E2;strokeColor=#ffffff;points=[[0.005,0.63,0],[0.1,0.2,0],[0.9,0.2,0],[0.5,0,0],[0.995,0.63,0],[0.72,0.99,0],[0.5,1,0],[0.28,0.99,0]];shape=mxgraph.kubernetes.icon2;prIcon=pod" vertex="1" parent="1">
          <mxGeometry x="380" y="270" width="50" height="48" as="geometry" />
        </mxCell>
        <mxCell id="N-dZR8vgHqI-F6xBQVG8-22" style="edgeStyle=orthogonalEdgeStyle;rounded=0;orthogonalLoop=1;jettySize=auto;html=1;entryX=0;entryY=0.5;entryDx=0;entryDy=0;" edge="1" parent="1" source="N-dZR8vgHqI-F6xBQVG8-18" target="N-dZR8vgHqI-F6xBQVG8-4">
          <mxGeometry relative="1" as="geometry" />
        </mxCell>
        <mxCell id="N-dZR8vgHqI-F6xBQVG8-18" value="swell-api-worker" style="aspect=fixed;sketch=0;html=1;dashed=0;whitespace=wrap;verticalLabelPosition=bottom;verticalAlign=top;fillColor=#2875E2;strokeColor=#ffffff;points=[[0.005,0.63,0],[0.1,0.2,0],[0.9,0.2,0],[0.5,0,0],[0.995,0.63,0],[0.72,0.99,0],[0.5,1,0],[0.28,0.99,0]];shape=mxgraph.kubernetes.icon2;prIcon=pod" vertex="1" parent="1">
          <mxGeometry x="380" y="360" width="50" height="48" as="geometry" />
        </mxCell>
        <mxCell id="N-dZR8vgHqI-F6xBQVG8-24" style="edgeStyle=orthogonalEdgeStyle;rounded=0;orthogonalLoop=1;jettySize=auto;html=1;entryX=0;entryY=0.5;entryDx=0;entryDy=0;" edge="1" parent="1" source="N-dZR8vgHqI-F6xBQVG8-23" target="N-dZR8vgHqI-F6xBQVG8-4">
          <mxGeometry relative="1" as="geometry" />
        </mxCell>
        <mxCell id="N-dZR8vgHqI-F6xBQVG8-25" style="edgeStyle=orthogonalEdgeStyle;rounded=0;orthogonalLoop=1;jettySize=auto;html=1;entryX=0;entryY=0.5;entryDx=0;entryDy=0;" edge="1" parent="1" source="N-dZR8vgHqI-F6xBQVG8-23" target="N-dZR8vgHqI-F6xBQVG8-3">
          <mxGeometry relative="1" as="geometry" />
        </mxCell>
        <mxCell id="N-dZR8vgHqI-F6xBQVG8-26" style="edgeStyle=orthogonalEdgeStyle;rounded=0;orthogonalLoop=1;jettySize=auto;html=1;entryX=0;entryY=0.5;entryDx=0;entryDy=0;" edge="1" parent="1" source="N-dZR8vgHqI-F6xBQVG8-23" target="N-dZR8vgHqI-F6xBQVG8-2">
          <mxGeometry relative="1" as="geometry" />
        </mxCell>
        <mxCell id="N-dZR8vgHqI-F6xBQVG8-27" style="edgeStyle=orthogonalEdgeStyle;rounded=0;orthogonalLoop=1;jettySize=auto;html=1;entryX=0;entryY=0.5;entryDx=0;entryDy=0;" edge="1" parent="1" source="N-dZR8vgHqI-F6xBQVG8-23" target="N-dZR8vgHqI-F6xBQVG8-1">
          <mxGeometry relative="1" as="geometry" />
        </mxCell>
        <mxCell id="N-dZR8vgHqI-F6xBQVG8-57" style="edgeStyle=orthogonalEdgeStyle;rounded=0;orthogonalLoop=1;jettySize=auto;html=1;entryX=0.5;entryY=0;entryDx=0;entryDy=0;" edge="1" parent="1" source="N-dZR8vgHqI-F6xBQVG8-23" target="N-dZR8vgHqI-F6xBQVG8-53">
          <mxGeometry relative="1" as="geometry" />
        </mxCell>
        <mxCell id="N-dZR8vgHqI-F6xBQVG8-23" value="swell-api-worker" style="aspect=fixed;sketch=0;html=1;dashed=0;whitespace=wrap;verticalLabelPosition=bottom;verticalAlign=top;fillColor=#2875E2;strokeColor=#ffffff;points=[[0.005,0.63,0],[0.1,0.2,0],[0.9,0.2,0],[0.5,0,0],[0.995,0.63,0],[0.72,0.99,0],[0.5,1,0],[0.28,0.99,0]];shape=mxgraph.kubernetes.icon2;prIcon=pod" vertex="1" parent="1">
          <mxGeometry x="380" y="440" width="50" height="48" as="geometry" />
        </mxCell>
        <mxCell id="N-dZR8vgHqI-F6xBQVG8-28" value="redis-prod&lt;div&gt;&lt;br&gt;&lt;/div&gt;" style="image;sketch=0;aspect=fixed;html=1;points=[];align=center;fontSize=12;image=img/lib/mscae/Cache_Redis_Product.svg;" vertex="1" parent="1">
          <mxGeometry x="595" y="428" width="50" height="42" as="geometry" />
        </mxCell>
        <mxCell id="N-dZR8vgHqI-F6xBQVG8-30" value="redis-prod-cache" style="image;sketch=0;aspect=fixed;html=1;points=[];align=center;fontSize=12;image=img/lib/mscae/Cache_Redis_Product.svg;" vertex="1" parent="1">
          <mxGeometry x="595" y="-50" width="50" height="42" as="geometry" />
        </mxCell>
        <mxCell id="N-dZR8vgHqI-F6xBQVG8-31" style="edgeStyle=orthogonalEdgeStyle;rounded=0;orthogonalLoop=1;jettySize=auto;html=1;entryX=0;entryY=0.548;entryDx=0;entryDy=0;entryPerimeter=0;" edge="1" parent="1" source="N-dZR8vgHqI-F6xBQVG8-18" target="N-dZR8vgHqI-F6xBQVG8-28">
          <mxGeometry relative="1" as="geometry" />
        </mxCell>
        <mxCell id="N-dZR8vgHqI-F6xBQVG8-32" value="redis-prod&lt;div&gt;&lt;br&gt;&lt;/div&gt;" style="image;sketch=0;aspect=fixed;html=1;points=[];align=center;fontSize=12;image=img/lib/mscae/Cache_Redis_Product.svg;" vertex="1" parent="1">
          <mxGeometry x="595" y="508" width="50" height="42" as="geometry" />
        </mxCell>
        <mxCell id="N-dZR8vgHqI-F6xBQVG8-33" style="edgeStyle=orthogonalEdgeStyle;rounded=0;orthogonalLoop=1;jettySize=auto;html=1;entryX=0;entryY=0.5;entryDx=0;entryDy=0;entryPerimeter=0;" edge="1" parent="1" source="N-dZR8vgHqI-F6xBQVG8-23" target="N-dZR8vgHqI-F6xBQVG8-32">
          <mxGeometry relative="1" as="geometry" />
        </mxCell>
        <mxCell id="N-dZR8vgHqI-F6xBQVG8-34" style="edgeStyle=orthogonalEdgeStyle;rounded=0;orthogonalLoop=1;jettySize=auto;html=1;entryX=0.02;entryY=0.452;entryDx=0;entryDy=0;entryPerimeter=0;" edge="1" parent="1" source="N-dZR8vgHqI-F6xBQVG8-6" target="N-dZR8vgHqI-F6xBQVG8-30">
          <mxGeometry relative="1" as="geometry" />
        </mxCell>
        <mxCell id="N-dZR8vgHqI-F6xBQVG8-35" style="edgeStyle=orthogonalEdgeStyle;rounded=0;orthogonalLoop=1;jettySize=auto;html=1;entryX=0;entryY=0.476;entryDx=0;entryDy=0;entryPerimeter=0;" edge="1" parent="1" source="N-dZR8vgHqI-F6xBQVG8-11" target="N-dZR8vgHqI-F6xBQVG8-30">
          <mxGeometry relative="1" as="geometry" />
        </mxCell>
        <mxCell id="N-dZR8vgHqI-F6xBQVG8-36" value="swell-admin" style="aspect=fixed;sketch=0;html=1;dashed=0;whitespace=wrap;verticalLabelPosition=bottom;verticalAlign=top;fillColor=#2875E2;strokeColor=#ffffff;points=[[0.005,0.63,0],[0.1,0.2,0],[0.9,0.2,0],[0.5,0,0],[0.995,0.63,0],[0.72,0.99,0],[0.5,1,0],[0.28,0.99,0]];shape=mxgraph.kubernetes.icon2;prIcon=pod" vertex="1" parent="1">
          <mxGeometry x="200" y="90" width="50" height="48" as="geometry" />
        </mxCell>
        <mxCell id="N-dZR8vgHqI-F6xBQVG8-37" value="swell-admin" style="aspect=fixed;sketch=0;html=1;dashed=0;whitespace=wrap;verticalLabelPosition=bottom;verticalAlign=top;fillColor=#2875E2;strokeColor=#ffffff;points=[[0.005,0.63,0],[0.1,0.2,0],[0.9,0.2,0],[0.5,0,0],[0.995,0.63,0],[0.72,0.99,0],[0.5,1,0],[0.28,0.99,0]];shape=mxgraph.kubernetes.icon2;prIcon=pod" vertex="1" parent="1">
          <mxGeometry x="200" y="360" width="50" height="48" as="geometry" />
        </mxCell>
        <mxCell id="N-dZR8vgHqI-F6xBQVG8-38" style="edgeStyle=orthogonalEdgeStyle;rounded=0;orthogonalLoop=1;jettySize=auto;html=1;entryX=0.005;entryY=0.63;entryDx=0;entryDy=0;entryPerimeter=0;" edge="1" parent="1" source="N-dZR8vgHqI-F6xBQVG8-36" target="N-dZR8vgHqI-F6xBQVG8-6">
          <mxGeometry relative="1" as="geometry" />
        </mxCell>
        <mxCell id="N-dZR8vgHqI-F6xBQVG8-39" style="edgeStyle=orthogonalEdgeStyle;rounded=0;orthogonalLoop=1;jettySize=auto;html=1;entryX=0.22;entryY=0.646;entryDx=0;entryDy=0;entryPerimeter=0;" edge="1" parent="1" source="N-dZR8vgHqI-F6xBQVG8-37" target="N-dZR8vgHqI-F6xBQVG8-11">
          <mxGeometry relative="1" as="geometry" />
        </mxCell>
        <mxCell id="N-dZR8vgHqI-F6xBQVG8-40" style="edgeStyle=orthogonalEdgeStyle;rounded=0;orthogonalLoop=1;jettySize=auto;html=1;entryX=0.005;entryY=0.63;entryDx=0;entryDy=0;entryPerimeter=0;" edge="1" parent="1" source="N-dZR8vgHqI-F6xBQVG8-37" target="N-dZR8vgHqI-F6xBQVG8-16">
          <mxGeometry relative="1" as="geometry" />
        </mxCell>
        <mxCell id="N-dZR8vgHqI-F6xBQVG8-41" style="edgeStyle=orthogonalEdgeStyle;rounded=0;orthogonalLoop=1;jettySize=auto;html=1;entryX=0.005;entryY=0.63;entryDx=0;entryDy=0;entryPerimeter=0;" edge="1" parent="1" source="N-dZR8vgHqI-F6xBQVG8-37" target="N-dZR8vgHqI-F6xBQVG8-18">
          <mxGeometry relative="1" as="geometry" />
        </mxCell>
        <mxCell id="N-dZR8vgHqI-F6xBQVG8-42" style="edgeStyle=orthogonalEdgeStyle;rounded=0;orthogonalLoop=1;jettySize=auto;html=1;entryX=0.005;entryY=0.63;entryDx=0;entryDy=0;entryPerimeter=0;" edge="1" parent="1" source="N-dZR8vgHqI-F6xBQVG8-37" target="N-dZR8vgHqI-F6xBQVG8-23">
          <mxGeometry relative="1" as="geometry" />
        </mxCell>
        <mxCell id="N-dZR8vgHqI-F6xBQVG8-44" style="edgeStyle=orthogonalEdgeStyle;rounded=0;orthogonalLoop=1;jettySize=auto;html=1;entryX=0;entryY=0.5;entryDx=0;entryDy=0;" edge="1" parent="1" source="N-dZR8vgHqI-F6xBQVG8-43" target="N-dZR8vgHqI-F6xBQVG8-5">
          <mxGeometry relative="1" as="geometry" />
        </mxCell>
        <mxCell id="N-dZR8vgHqI-F6xBQVG8-43" value="" style="sketch=0;verticalLabelPosition=bottom;sketch=0;aspect=fixed;html=1;verticalAlign=top;strokeColor=none;fillColor=#000000;align=center;outlineConnect=0;pointerEvents=1;shape=mxgraph.citrix2.citrix_enterprise_browser;" vertex="1" parent="1">
          <mxGeometry x="-330" y="245" width="116.4" height="100" as="geometry" />
        </mxCell>
        <mxCell id="N-dZR8vgHqI-F6xBQVG8-45" value="swell-checkout" style="aspect=fixed;sketch=0;html=1;dashed=0;whitespace=wrap;verticalLabelPosition=bottom;verticalAlign=top;fillColor=#2875E2;strokeColor=#ffffff;points=[[0.005,0.63,0],[0.1,0.2,0],[0.9,0.2,0],[0.5,0,0],[0.995,0.63,0],[0.72,0.99,0],[0.5,1,0],[0.28,0.99,0]];shape=mxgraph.kubernetes.icon2;prIcon=pod" vertex="1" parent="1">
          <mxGeometry y="138" width="50" height="48" as="geometry" />
        </mxCell>
        <mxCell id="N-dZR8vgHqI-F6xBQVG8-47" style="edgeStyle=orthogonalEdgeStyle;rounded=0;orthogonalLoop=1;jettySize=auto;html=1;entryX=0.005;entryY=0.63;entryDx=0;entryDy=0;entryPerimeter=0;" edge="1" parent="1" source="N-dZR8vgHqI-F6xBQVG8-45" target="N-dZR8vgHqI-F6xBQVG8-36">
          <mxGeometry relative="1" as="geometry" />
        </mxCell>
        <mxCell id="N-dZR8vgHqI-F6xBQVG8-48" style="edgeStyle=orthogonalEdgeStyle;rounded=0;orthogonalLoop=1;jettySize=auto;html=1;entryX=0.005;entryY=0.63;entryDx=0;entryDy=0;entryPerimeter=0;" edge="1" parent="1" source="N-dZR8vgHqI-F6xBQVG8-45" target="N-dZR8vgHqI-F6xBQVG8-37">
          <mxGeometry relative="1" as="geometry" />
        </mxCell>
        <mxCell id="N-dZR8vgHqI-F6xBQVG8-49" value="swell-model-exporer" style="aspect=fixed;sketch=0;html=1;dashed=0;whitespace=wrap;verticalLabelPosition=bottom;verticalAlign=top;fillColor=#2875E2;strokeColor=#ffffff;points=[[0.005,0.63,0],[0.1,0.2,0],[0.9,0.2,0],[0.5,0,0],[0.995,0.63,0],[0.72,0.99,0],[0.5,1,0],[0.28,0.99,0]];shape=mxgraph.kubernetes.icon2;prIcon=pod" vertex="1" parent="1">
          <mxGeometry y="271" width="50" height="48" as="geometry" />
        </mxCell>
        <mxCell id="N-dZR8vgHqI-F6xBQVG8-50" style="edgeStyle=orthogonalEdgeStyle;rounded=0;orthogonalLoop=1;jettySize=auto;html=1;entryX=0.005;entryY=0.63;entryDx=0;entryDy=0;entryPerimeter=0;" edge="1" parent="1" source="N-dZR8vgHqI-F6xBQVG8-49" target="N-dZR8vgHqI-F6xBQVG8-36">
          <mxGeometry relative="1" as="geometry" />
        </mxCell>
        <mxCell id="N-dZR8vgHqI-F6xBQVG8-51" style="edgeStyle=orthogonalEdgeStyle;rounded=0;orthogonalLoop=1;jettySize=auto;html=1;entryX=0.005;entryY=0.63;entryDx=0;entryDy=0;entryPerimeter=0;" edge="1" parent="1" source="N-dZR8vgHqI-F6xBQVG8-49" target="N-dZR8vgHqI-F6xBQVG8-37">
          <mxGeometry relative="1" as="geometry" />
        </mxCell>
        <mxCell id="N-dZR8vgHqI-F6xBQVG8-53" value="VPC" style="rounded=1;whiteSpace=wrap;html=1;" vertex="1" parent="1">
          <mxGeometry x="330" y="730" width="360" height="210" as="geometry" />
        </mxCell>
        <mxCell id="N-dZR8vgHqI-F6xBQVG8-52" value="vault-db" style="sketch=0;outlineConnect=0;fontColor=#232F3E;gradientColor=none;fillColor=#7AA116;strokeColor=none;dashed=0;verticalLabelPosition=bottom;verticalAlign=top;align=center;html=1;fontSize=12;fontStyle=0;aspect=fixed;pointerEvents=1;shape=mxgraph.aws4.aws_backup_vault_lock;" vertex="1" parent="1">
          <mxGeometry x="530" y="750" width="130" height="130" as="geometry" />
        </mxCell>
        <mxCell id="N-dZR8vgHqI-F6xBQVG8-55" style="edgeStyle=orthogonalEdgeStyle;rounded=0;orthogonalLoop=1;jettySize=auto;html=1;" edge="1" parent="1" source="N-dZR8vgHqI-F6xBQVG8-54" target="N-dZR8vgHqI-F6xBQVG8-52">
          <mxGeometry relative="1" as="geometry" />
        </mxCell>
        <mxCell id="N-dZR8vgHqI-F6xBQVG8-54" value="vault" style="image;html=1;image=img/lib/clip_art/computers/Server_128x128.png" vertex="1" parent="1">
          <mxGeometry x="374" y="775" width="80" height="80" as="geometry" />
        </mxCell>
        <mxCell id="N-dZR8vgHqI-F6xBQVG8-58" value="GitLab Runners" style="rounded=0;whiteSpace=wrap;html=1;" vertex="1" parent="1">
          <mxGeometry x="-580" y="660" width="160" height="270" as="geometry" />
        </mxCell>
        <mxCell id="N-dZR8vgHqI-F6xBQVG8-61" style="edgeStyle=orthogonalEdgeStyle;rounded=0;orthogonalLoop=1;jettySize=auto;html=1;entryX=0.5;entryY=0;entryDx=0;entryDy=0;" edge="1" parent="1" source="N-dZR8vgHqI-F6xBQVG8-59" target="N-dZR8vgHqI-F6xBQVG8-60">
          <mxGeometry relative="1" as="geometry" />
        </mxCell>
        <mxCell id="N-dZR8vgHqI-F6xBQVG8-59" value="GitLab Continaer Registry" style="rounded=0;whiteSpace=wrap;html=1;" vertex="1" parent="1">
          <mxGeometry x="-380" y="660" width="160" height="270" as="geometry" />
        </mxCell>
        <mxCell id="N-dZR8vgHqI-F6xBQVG8-62" style="edgeStyle=orthogonalEdgeStyle;rounded=0;orthogonalLoop=1;jettySize=auto;html=1;exitX=1;exitY=0.5;exitDx=0;exitDy=0;" edge="1" parent="1" source="N-dZR8vgHqI-F6xBQVG8-60" target="N-dZR8vgHqI-F6xBQVG8-5">
          <mxGeometry relative="1" as="geometry" />
        </mxCell>
        <mxCell id="N-dZR8vgHqI-F6xBQVG8-60" value="Swell deploy" style="image;html=1;image=img/lib/clip_art/computers/Server_128x128.png" vertex="1" parent="1">
          <mxGeometry x="-440" y="1000" width="80" height="80" as="geometry" />
        </mxCell>
      </root>
    </mxGraphModel>
  </diagram>
</mxfile>
